<svg xmlns="http://www.w3.org/2000/svg" width="26" height="26" viewBox="0 0 24 24" fill="none" style="display:block;flex:none" aria-hidden="true"><path d="M12 20.6S3.4 14.8 3.4 8.6c0-3.1 2.3-5 4.6-5 1.9 0 3.1 1.2 4 2.3.9-1.1 2.1-2.3 4-2.3 2.3 0 4.6 1.9 4.6 5 0 6.2-8.6 12-8.6 12z" fill="rgba(255,111,97,0.2)"></path><path d="M12 20.6S3.4 14.8 3.4 8.6c0-3.1 2.3-5 4.6-5 1.9 0 3.1 1.2 4 2.3.9-1.1 2.1-2.3 4-2.3 2.3 0 4.6 1.9 4.6 5 0 6.2-8.6 12-8.6 12z" stroke="#ff6f61" stroke-width="2" stroke-linecap="round" stroke-linejoin="round" fill="none"></path></svg>