<svg xmlns="http://www.w3.org/2000/svg" width="24" height="24" viewBox="0 0 24 24" fill="none" style="display:block;flex:none" aria-hidden="true"><path d="M3.6 10.6h16.8v9.2c0 .9-.7 1.6-1.6 1.6H5.2c-.9 0-1.6-.7-1.6-1.6z" fill="rgba(194,205,182,0.2)"></path><path d="M3.6 10.6h16.8v9.2c0 .9-.7 1.6-1.6 1.6H5.2c-.9 0-1.6-.7-1.6-1.6zM2.8 7h18.4v3.6H2.8zM12 7v14.4M12 7C9.6 3 4 3.8 6.4 7M12 7c2.4-4 8-3.2 5.6 0" stroke="#c2cdb6" stroke-width="2" stroke-linecap="round" stroke-linejoin="round" fill="none"></path></svg>